<svg id="visual" viewBox="0 0 900 600" width="900" height="600" xmlns="http://www.w3.org/2000/svg" xmlns:xlink="http://www.w3.org/1999/xlink" version="1.1"><rect x="0" y="0" width="900" height="600" fill="#FF0066"></rect><g transform="translate(443.3671224831696 326.1353747260173)"><path d="M136.6 -162.4C176.3 -129.4 207.3 -85.7 208.1 -42.5C208.8 0.8 179.3 43.7 143.9 62.4C108.4 81.2 67 75.8 29.2 96.6C-8.5 117.5 -42.8 164.4 -87.9 176.3C-133 188.1 -189 164.8 -194.4 126.4C-199.8 87.9 -154.6 34.3 -145.9 -27.6C-137.2 -89.5 -165 -159.6 -146.8 -196.4C-128.6 -233.2 -64.3 -236.6 -7.9 -227.2C48.4 -217.7 96.8 -195.4 136.6 -162.4" fill="#BB004B"></path></g></svg>